# xmcd
# 
# Track frame offsets:
#     150
#     14985
#     26612
#     48615
#     69482
#     83320
#     98880
#     111275
#     128277
#     143647
# 
# Disc length: 2164
# 
# Revision: 10
# Processed by: cddbd v1.5.2PL0 Copyright (c) Steve Scherf et al.
# Submitted via: fre:ac v1.0.27
# 
DISCID=7d08720a
DTITLE=Lyle Lovett - Step Inside This House 2
DYEAR=1998
DGENRE=Country
TTITLE0=Texas Trilogy:Daybreak
TTITLE1=Texas Trilogy:Train Ride
TTITLE2=Texas Trilogy:Bosque County Romance
TTITLE3=Flyin' Shoes
TTITLE4=Babes In The Woods
TTITLE5=Highway Kind
TTITLE6=Lonely In Love
TTITLE7=If I Needed You
TTITLE8=I'll Come Knockin'
TTITLE9=Texas River Song
EXTD=LABEL =MCA Records, Inc.\nID =MCAD2-11831\nUPC =008811-183127\nCOPYRIGHT =1998 YEAR: 1998
EXTT0=
EXTT1=
EXTT2=
EXTT3=
EXTT4=
EXTT5=
EXTT6=
EXTT7=
EXTT8=
EXTT9=
PLAYORDER=
